{
  "accessors": [
    {
      "bufferView": 2,
      "componentType": 5126,
      "count": 11239,
      "max": [
        -4358.35986328125,
        3963.619873046875,
        1591.22900390625
      ],
      "min": [
        -5220.40283203125,
        3895.0078125,
        380.82135009765625
      ],
      "type": "VEC3"
    },
    {
      "bufferView": 2,
      "byteOffset": 134868,
      "componentType": 5126,
      "count": 11239,
      "max": [
        1.0,
        1.0,
        1.0
      ],
      "min": [
        -1.0,
        -0.9999991059303284,
        -1.0
      ],
      "type": "VEC3"
    },
    {
      "bufferView": 3,
      "componentType": 5126,
      "count": 11239,
      "max": [
        0.9999896287918091,
        0.9999985694885254,
        0.9999545216560364,
        1.0
      ],
      "min": [
        -0.9998049736022949,
        -0.9999977946281433,
        -0.9995565414428711,
        -1.0
      ],
      "type": "VEC4"
    },
    {
      "bufferView": 1,
      "componentType": 5126,
      "count": 11239,
      "max": [
        0.9950469732284546,
        0.9980469942092896
      ],
      "min": [
        0.0019529999699443579,
        0.0019529999699443579
      ],
      "type": "VEC2"
    },
    {
      "bufferView": 0,
      "componentType": 5125,
      "count": 59358,
      "type": "SCALAR"
    },
    {
      "bufferView": 2,
      "byteOffset": 269736,
      "componentType": 5126,
      "count": 6721,
      "max": [
        -4450.171875,
        3958.0546875,
        1431.2830810546875
      ],
      "min": [
        -5129.39599609375,
        3919.759765625,
        516.0260009765625
      ],
      "type": "VEC3"
    },
    {
      "bufferView": 2,
      "byteOffset": 350388,
      "componentType": 5126,
      "count": 6721,
      "max": [
        0.9999897480010986,
        1.0,
        0.9999580979347229
      ],
      "min": [
        -0.9999688863754272,
        -0.9999940991401672,
        -0.9997312426567078
      ],
      "type": "VEC3"
    },
    {
      "bufferView": 3,
      "byteOffset": 179824,
      "componentType": 5126,
      "count": 6721,
      "max": [
        0.9999907612800598,
        0.9999884366989136,
        0.9999136328697205,
        1.0
      ],
      "min": [
        -0.9997559785842896,
        -1.0,
        -0.9999654293060303,
        -1.0
      ],
      "type": "VEC4"
    },
    {
      "bufferView": 1,
      "byteOffset": 89912,
      "componentType": 5126,
      "count": 6721,
      "max": [
        1.9076080322265625,
        0.9751390218734741
      ],
      "min": [
        1.0019530057907104,
        0.0019529999699443579
      ],
      "type": "VEC2"
    },
    {
      "bufferView": 0,
      "byteOffset": 237432,
      "componentType": 5125,
      "count": 34248,
      "type": "SCALAR"
    },
    {
      "bufferView": 2,
      "byteOffset": 431040,
      "componentType": 5126,
      "count": 84,
      "max": [
        -4493.90478515625,
        3958.0126953125,
        1361.4261474609375
      ],
      "min": [
        -5083.0029296875,
        3939.935791015625,
        588.4993896484375
      ],
      "type": "VEC3"
    },
    {
      "bufferView": 2,
      "byteOffset": 432048,
      "componentType": 5126,
      "count": 84,
      "max": [
        1.0,
        1.0,
        1.0
      ],
      "min": [
        -1.0,
        0.0,
        -1.0
      ],
      "type": "VEC3"
    },
    {
      "bufferView": 3,
      "byteOffset": 287360,
      "componentType": 5126,
      "count": 84,
      "max": [
        0.0,
        0.9994468092918396,
        0.49730077385902405,
        1.0
      ],
      "min": [
        -0.9992314577102661,
        -0.9994468092918396,
        -0.5619556307792664,
        1.0
      ],
      "type": "VEC4"
    },
    {
      "bufferView": 1,
      "byteOffset": 143680,
      "componentType": 5126,
      "count": 84,
      "max": [
        0.5980089902877808,
        0.9637439846992493
      ],
      "min": [
        0.5324029922485352,
        0.8792359828948975
      ],
      "type": "VEC2"
    },
    {
      "bufferView": 0,
      "byteOffset": 374424,
      "componentType": 5125,
      "count": 246,
      "type": "SCALAR"
    },
    {
      "bufferView": 2,
      "byteOffset": 433056,
      "componentType": 5126,
      "count": 1842,
      "max": [
        -4493.90478515625,
        3958.0546875,
        1361.4261474609375
      ],
      "min": [
        -5083.0029296875,
        3916.036865234375,
        588.4993896484375
      ],
      "type": "VEC3"
    },
    {
      "bufferView": 2,
      "byteOffset": 455160,
      "componentType": 5126,
      "count": 1842,
      "max": [
        1.0,
        1.4999999621068127e-05,
        1.0
      ],
      "min": [
        -1.0,
        -1.0,
        -1.0
      ],
      "type": "VEC3"
    },
    {
      "bufferView": 3,
      "byteOffset": 288704,
      "componentType": 5126,
      "count": 1842,
      "max": [
        0.999994158744812,
        1.0,
        0.9998677968978882,
        1.0
      ],
      "min": [
        -0.9999943375587463,
        -0.986785352230072,
        -0.999989926815033,
        1.0
      ],
      "type": "VEC4"
    },
    {
      "bufferView": 1,
      "byteOffset": 144352,
      "componentType": 5126,
      "count": 1842,
      "max": [
        1.9980469942092896,
        0.873691976070404
      ],
      "min": [
        1.0019530057907104,
        0.0019529999699443579
      ],
      "type": "VEC2"
    },
    {
      "bufferView": 0,
      "byteOffset": 375408,
      "componentType": 5125,
      "count": 8814,
      "type": "SCALAR"
    }
  ],
  "asset": {
    "extras": {
      "author": "blackrray (https://sketchfab.com/blackrray)",
      "license": "CC-BY-4.0 (http://creativecommons.org/licenses/by/4.0/)",
      "source": "https://sketchfab.com/3d-models/fancy-picture-frame-01-freepolyorg-70aef7f536f24a04aa35b33f48d5e610",
      "title": "Fancy Picture Frame 01-Freepoly.org"
    },
    "generator": "Sketchfab-13.79.0",
    "version": "2.0"
  },
  "bufferViews": [
    {
      "buffer": 0,
      "byteLength": 410664,
      "name": "floatBufferViews",
      "target": 34963
    },
    {
      "buffer": 0,
      "byteLength": 159088,
      "byteOffset": 410664,
      "byteStride": 8,
      "name": "floatBufferViews",
      "target": 34962
    },
    {
      "buffer": 0,
      "byteLength": 477264,
      "byteOffset": 569752,
      "byteStride": 12,
      "name": "floatBufferViews",
      "target": 34962
    },
    {
      "buffer": 0,
      "byteLength": 318176,
      "byteOffset": 1047016,
      "byteStride": 16,
      "name": "floatBufferViews",
      "target": 34962
    }
  ],
  "buffers": [
    {
      "byteLength": 1365192,
      "uri": "scene.bin"
    }
  ],
  "images": [
    {
      "uri": "textures/wire_086086086_1001_baseColor.jpeg"
    },
    {
      "uri": "textures/wire_086086086_1001_metallicRoughness.png"
    },
    {
      "uri": "textures/wire_086086086_1001_normal.png"
    },
    {
      "uri": "textures/wire_086086086_1002_baseColor.jpeg"
    },
    {
      "uri": "textures/wire_086086086_1002_metallicRoughness.png"
    },
    {
      "uri": "textures/wire_086086086_1002_normal.png"
    }
  ],
  "materials": [
    {
      "doubleSided": true,
      "name": "wire_086086086_1001",
      "normalTexture": {
        "index": 2
      },
      "occlusionTexture": {
        "index": 1
      },
      "pbrMetallicRoughness": {
        "baseColorTexture": {
          "index": 0
        },
        "metallicRoughnessTexture": {
          "index": 1
        }
      }
    },
    {
      "doubleSided": true,
      "name": "wire_086086086_1002",
      "normalTexture": {
        "index": 5
      },
      "occlusionTexture": {
        "index": 4
      },
      "pbrMetallicRoughness": {
        "baseColorTexture": {
          "index": 3
        },
        "metallicRoughnessTexture": {
          "index": 4
        }
      }
    }
  ],
  "meshes": [
    {
      "name": "defaultMaterial",
      "primitives": [
        {
          "attributes": {
            "NORMAL": 1,
            "POSITION": 0,
            "TANGENT": 2,
            "TEXCOORD_0": 3
          },
          "indices": 4,
          "material": 0,
          "mode": 4
        }
      ]
    },
    {
      "name": "defaultMaterial",
      "primitives": [
        {
          "attributes": {
            "NORMAL": 6,
            "POSITION": 5,
            "TANGENT": 7,
            "TEXCOORD_0": 8
          },
          "indices": 9,
          "material": 1,
          "mode": 4
        }
      ]
    },
    {
      "name": "defaultMaterial",
      "primitives": [
        {
          "attributes": {
            "NORMAL": 11,
            "POSITION": 10,
            "TANGENT": 12,
            "TEXCOORD_0": 13
          },
          "indices": 14,
          "material": 0,
          "mode": 4
        }
      ]
    },
    {
      "name": "defaultMaterial",
      "primitives": [
        {
          "attributes": {
            "NORMAL": 16,
            "POSITION": 15,
            "TANGENT": 17,
            "TEXCOORD_0": 18
          },
          "indices": 19,
          "material": 1,
          "mode": 4
        }
      ]
    }
  ],
  "nodes": [
    {
      "children": [
        1
      ],
      "matrix": [
        0.0004116056370548904,
        0.0,
        0.0,
        0.0,
        0.0,
        9.139481106476896e-20,
        -0.0004116056370548904,
        0.0,
        0.0,
        0.0004116056370548904,
        9.139481106476896e-20,
        0.0,
        0.0,
        0.0,
        0.0,
        1.0
      ],
      "name": "Sketchfab_model"
    },
    {
      "children": [
        2,
        5
      ],
      "matrix": [
        1.0,
        0.0,
        0.0,
        0.0,
        0.0,
        -4.371139006309477e-08,
        0.999999999999999,
        0.0,
        0.0,
        -0.999999999999999,
        -4.371139006309477e-08,
        0.0,
        0.0,
        0.0,
        0.0,
        1.0
      ],
      "name": "Collada visual scene group"
    },
    {
      "children": [
        3,
        4
      ],
      "matrix": [
        1.0,
        0.0,
        0.0,
        0.0,
        0.0,
        0.0,
        -1.0,
        0.0,
        0.0,
        1.0,
        0.0,
        0.0,
        0.0,
        0.0,
        0.0,
        1.0
      ],
      "name": "Object001"
    },
    {
      "mesh": 0,
      "name": "defaultMaterial"
    },
    {
      "mesh": 1,
      "name": "defaultMaterial"
    },
    {
      "children": [
        6,
        7
      ],
      "matrix": [
        1.0,
        0.0,
        0.0,
        0.0,
        0.0,
        0.0,
        -1.0,
        0.0,
        0.0,
        1.0,
        0.0,
        0.0,
        0.0,
        0.0,
        0.0,
        1.0
      ],
      "name": "Obj3d66_650332_232_896"
    },
    {
      "mesh": 2,
      "name": "defaultMaterial"
    },
    {
      "mesh": 3,
      "name": "defaultMaterial"
    }
  ],
  "samplers": [
    {
      "magFilter": 9729,
      "minFilter": 9987,
      "wrapS": 10497,
      "wrapT": 10497
    }
  ],
  "scene": 0,
  "scenes": [
    {
      "name": "Sketchfab_Scene",
      "nodes": [
        0
      ]
    }
  ],
  "textures": [
    {
      "sampler": 0,
      "source": 0
    },
    {
      "sampler": 0,
      "source": 1
    },
    {
      "sampler": 0,
      "source": 2
    },
    {
      "sampler": 0,
      "source": 3
    },
    {
      "sampler": 0,
      "source": 4
    },
    {
      "sampler": 0,
      "source": 5
    }
  ]
}
