{
  "accessors": [
    {
      "bufferView": 2,
      "componentType": 5126,
      "count": 1608,
      "max": [
        11.494173049926758,
        -1.5703779458999634,
        12.561043739318848
      ],
      "min": [
        -10.931878089904785,
        -20.945377349853516,
        -13.679357528686523
      ],
      "type": "VEC3"
    },
    {
      "bufferView": 2,
      "byteOffset": 19296,
      "componentType": 5126,
      "count": 1608,
      "max": [
        0.9990463852882385,
        0.9999789595603943,
        0.998908281326294
      ],
      "min": [
        -0.9971802234649658,
        -0.9976677298545837,
        -0.9989711046218872
      ],
      "type": "VEC3"
    },
    {
      "bufferView": 1,
      "componentType": 5126,
      "count": 1608,
      "max": [
        0.9996320009231567,
        0.9647219777107239
      ],
      "min": [
        0.00012199999764561653,
        0.0003769999893847853
      ],
      "type": "VEC2"
    },
    {
      "bufferView": 0,
      "componentType": 5125,
      "count": 1608,
      "type": "SCALAR"
    },
    {
      "bufferView": 2,
      "byteOffset": 38592,
      "componentType": 5126,
      "count": 5675,
      "max": [
        10.256434440612793,
        -1.6654789447784424,
        12.456802368164063
      ],
      "min": [
        -10.853907585144043,
        -20.429584503173828,
        -13.693205833435059
      ],
      "type": "VEC3"
    },
    {
      "bufferView": 2,
      "byteOffset": 106692,
      "componentType": 5126,
      "count": 5675,
      "max": [
        0.9999897480010986,
        0.999987781047821,
        0.9999898672103882
      ],
      "min": [
        -0.9999898672103882,
        -0.9999890923500061,
        -0.9999896287918091
      ],
      "type": "VEC3"
    },
    {
      "bufferView": 1,
      "byteOffset": 12864,
      "componentType": 5126,
      "count": 5675,
      "max": [
        0.9996079802513123,
        0.9764400124549866
      ],
      "min": [
        0.00012199999764561653,
        0.00036800000816583633
      ],
      "type": "VEC2"
    },
    {
      "bufferView": 0,
      "byteOffset": 6432,
      "componentType": 5125,
      "count": 12663,
      "type": "SCALAR"
    },
    {
      "bufferView": 2,
      "byteOffset": 174792,
      "componentType": 5126,
      "count": 65532,
      "max": [
        12.082555770874023,
        -1.514096975326538,
        12.847249984741211
      ],
      "min": [
        -10.989363670349121,
        -21.28130531311035,
        -13.853113174438477
      ],
      "type": "VEC3"
    },
    {
      "bufferView": 2,
      "byteOffset": 961176,
      "componentType": 5126,
      "count": 65532,
      "max": [
        0.9999991059303284,
        0.9999321103096008,
        0.999997615814209
      ],
      "min": [
        -1.0,
        -1.0,
        -0.9999995231628418
      ],
      "type": "VEC3"
    },
    {
      "bufferView": 1,
      "byteOffset": 58264,
      "componentType": 5126,
      "count": 65532,
      "max": [
        0.9996240139007568,
        0.9998779892921448
      ],
      "min": [
        0.00012199999764561653,
        0.00036700000055134296
      ],
      "type": "VEC2"
    },
    {
      "bufferView": 0,
      "byteOffset": 57084,
      "componentType": 5125,
      "count": 183396,
      "type": "SCALAR"
    },
    {
      "bufferView": 2,
      "byteOffset": 1747560,
      "componentType": 5126,
      "count": 44453,
      "max": [
        12.040505409240723,
        -1.5267740488052368,
        12.838112831115723
      ],
      "min": [
        -11.317938804626465,
        -21.28130531311035,
        -12.132617950439453
      ],
      "type": "VEC3"
    },
    {
      "bufferView": 2,
      "byteOffset": 2280996,
      "componentType": 5126,
      "count": 44453,
      "max": [
        0.9999947547912598,
        0.9998509883880615,
        0.9999955296516418
      ],
      "min": [
        -0.9999961256980896,
        -0.9999996423721313,
        -0.9999971389770508
      ],
      "type": "VEC3"
    },
    {
      "bufferView": 1,
      "byteOffset": 582520,
      "componentType": 5126,
      "count": 44453,
      "max": [
        0.9996299743652344,
        0.9969480037689209
      ],
      "min": [
        0.00012199999764561653,
        0.0003760000108741224
      ],
      "type": "VEC2"
    },
    {
      "bufferView": 0,
      "byteOffset": 790668,
      "componentType": 5125,
      "count": 108096,
      "type": "SCALAR"
    },
    {
      "bufferView": 2,
      "byteOffset": 2814432,
      "componentType": 5126,
      "count": 990,
      "max": [
        7.00968599319458,
        -1.6762770414352417,
        7.83900785446167
      ],
      "min": [
        -9.62081241607666,
        -9.156133651733398,
        -9.218156814575195
      ],
      "type": "VEC3"
    },
    {
      "bufferView": 2,
      "byteOffset": 2826312,
      "componentType": 5126,
      "count": 990,
      "max": [
        0.9999897480010986,
        0.9999896287918091,
        0.9999896287918091
      ],
      "min": [
        -0.9999896287918091,
        -0.9999896287918091,
        -0.9999896287918091
      ],
      "type": "VEC3"
    },
    {
      "bufferView": 1,
      "byteOffset": 938144,
      "componentType": 5126,
      "count": 990,
      "max": [
        0.9993990063667297,
        0.9786379933357239
      ],
      "min": [
        0.00012199999764561653,
        0.00036800000816583633
      ],
      "type": "VEC2"
    },
    {
      "bufferView": 0,
      "byteOffset": 1223052,
      "componentType": 5125,
      "count": 2736,
      "type": "SCALAR"
    }
  ],
  "asset": {
    "extras": {
      "author": "artfletch (https://sketchfab.com/artfletch)",
      "license": "CC-BY-4.0 (http://creativecommons.org/licenses/by/4.0/)",
      "source": "https://sketchfab.com/3d-models/st-dunstan-in-the-west-interior-0224645af27441d788ace5294b1e9a0f",
      "title": "St Dunstan In The West Interior"
    },
    "generator": "Sketchfab-15.16.0",
    "version": "2.0"
  },
  "bufferViews": [
    {
      "buffer": 0,
      "byteLength": 1233996,
      "name": "floatBufferViews",
      "target": 34963
    },
    {
      "buffer": 0,
      "byteLength": 946064,
      "byteOffset": 1233996,
      "byteStride": 8,
      "name": "floatBufferViews",
      "target": 34962
    },
    {
      "buffer": 0,
      "byteLength": 2838192,
      "byteOffset": 2180060,
      "byteStride": 12,
      "name": "floatBufferViews",
      "target": 34962
    }
  ],
  "buffers": [
    {
      "byteLength": 5018252,
      "uri": "scene.bin"
    }
  ],
  "extensionsUsed": [
    "KHR_materials_unlit"
  ],
  "images": [
    {
      "uri": "textures/StDunstanInTheWest01_Model_5_u1_v1_baseColor.jpeg"
    }
  ],
  "materials": [
    {
      "extensions": {
        "KHR_materials_unlit": {}
      },
      "name": "StDunstanInTheWest01_Model_5_u1_v1",
      "pbrMetallicRoughness": {
        "baseColorTexture": {
          "index": 0
        },
        "metallicFactor": 0.0
      }
    }
  ],
  "meshes": [
    {
      "name": "Object_0",
      "primitives": [
        {
          "attributes": {
            "NORMAL": 1,
            "POSITION": 0,
            "TEXCOORD_0": 2
          },
          "indices": 3,
          "material": 0,
          "mode": 4
        }
      ]
    },
    {
      "name": "Object_1",
      "primitives": [
        {
          "attributes": {
            "NORMAL": 5,
            "POSITION": 4,
            "TEXCOORD_0": 6
          },
          "indices": 7,
          "material": 0,
          "mode": 4
        }
      ]
    },
    {
      "name": "Object_2",
      "primitives": [
        {
          "attributes": {
            "NORMAL": 9,
            "POSITION": 8,
            "TEXCOORD_0": 10
          },
          "indices": 11,
          "material": 0,
          "mode": 4
        }
      ]
    },
    {
      "name": "Object_3",
      "primitives": [
        {
          "attributes": {
            "NORMAL": 13,
            "POSITION": 12,
            "TEXCOORD_0": 14
          },
          "indices": 15,
          "material": 0,
          "mode": 4
        }
      ]
    },
    {
      "name": "Object_4",
      "primitives": [
        {
          "attributes": {
            "NORMAL": 17,
            "POSITION": 16,
            "TEXCOORD_0": 18
          },
          "indices": 19,
          "material": 0,
          "mode": 4
        }
      ]
    }
  ],
  "nodes": [
    {
      "children": [
        1
      ],
      "matrix": [
        1.0,
        0.0,
        0.0,
        0.0,
        0.0,
        -1.0,
        -4.440892098500626e-16,
        0.0,
        0.0,
        4.440892098500626e-16,
        -1.0,
        0.0,
        0.0,
        0.0,
        0.0,
        1.0
      ],
      "name": "Sketchfab_model"
    },
    {
      "children": [
        2,
        3,
        4,
        5,
        6
      ],
      "name": "StDunstanInTheWest03.obj.cleaner.materialmerger.gles"
    },
    {
      "mesh": 0,
      "name": "Object_2"
    },
    {
      "mesh": 1,
      "name": "Object_3"
    },
    {
      "mesh": 2,
      "name": "Object_4"
    },
    {
      "mesh": 3,
      "name": "Object_5"
    },
    {
      "mesh": 4,
      "name": "Object_6"
    }
  ],
  "samplers": [
    {
      "magFilter": 9729,
      "minFilter": 9987,
      "wrapS": 10497,
      "wrapT": 10497
    }
  ],
  "scene": 0,
  "scenes": [
    {
      "name": "Sketchfab_Scene",
      "nodes": [
        0
      ]
    }
  ],
  "textures": [
    {
      "sampler": 0,
      "source": 0
    }
  ]
}
